<svg xmlns="http://www.w3.org/2000/svg" viewBox="0 0 100 100" width="100" height="100">
  <defs>
    <linearGradient id="leafGradient" x1="0%" y1="0%" x2="100%" y2="100%">
      <stop offset="0%" style="stop-color:#00FF00;stop-opacity:1" />
      <stop offset="100%" style="stop-color:#008000;stop-opacity:1" />
    </linearGradient>
    <linearGradient id="sunGradient" x1="0%" y1="0%" x2="100%" y2="100%">
      <stop offset="0%" style="stop-color:#FFFF00;stop-opacity:1" />
      <stop offset="100%" style="stop-color:#FFA500;stop-opacity:1" />
    </linearGradient>
  </defs>
  
  <!-- Солнце (круг с лучами) -->
  <circle cx="70" cy="30" r="15" fill="url(#sunGradient)" />
  <line x1="70" y1="10" x2="70" y2="5" stroke="#FFA500" stroke-width="3" stroke-linecap="round"/>
  <line x1="70" y1="55" x2="70" y2="50" stroke="#FFA500" stroke-width="3" stroke-linecap="round"/>
  <line x1="90" y1="30" x2="95" y2="30" stroke="#FFA500" stroke-width="3" stroke-linecap="round"/>
  <line x1="50" y1="30" x2="45" y2="30" stroke="#FFA500" stroke-width="3" stroke-linecap="round"/>
  <line x1="83" y1="17" x2="87" y2="13" stroke="#FFA500" stroke-width="3" stroke-linecap="round"/>
  <line x1="57" y1="43" x2="53" y2="47" stroke="#FFA500" stroke-width="3" stroke-linecap="round"/>
  <line x1="83" y1="43" x2="87" y2="47" stroke="#FFA500" stroke-width="3" stroke-linecap="round"/>
  <line x1="57" y1="17" x2="53" y2="13" stroke="#FFA500" stroke-width="3" stroke-linecap="round"/>
  
  <!-- Лист (геометрическая форма) -->
  <polygon points="20,80 40,50 60,80 40,70" fill="url(#leafGradient)" />
  <polygon points="40,50 50,40 60,50 60,60 50,70" fill="url(#leafGradient)" opacity="0.8"/>
</svg>